# xmcd
# 
# Track frame offsets:
#     150
#     13846
#     29208
#     44323
#     63569
#     83519
#     99923
#     115523
#     132202
#     148044
#     166073
#     184409
#     201913
#     216269
#     232207
#     244530
#     257353
#     272916
#     291966
#     330079
# 
# Disc length: 4596
# 
# Revision: 0
# Processed by: cddbd v1.5.2PL0 Copyright (c) Steve Scherf et al.
# Submitted via: BonkEnc v1.0.8
# 
DISCID=2111f214
DTITLE=Katie Melua - Live at Fairfields Hall Croydon
DYEAR=2004
DGENRE=Blues
TTITLE0=Faraway voice
TTITLE1=Call of the search
TTITLE2=Crawling up a hill
TTITLE3=Blame it on the moon
TTITLE4=Spider's web
TTITLE5=Thank you, stars
TTITLE6=My aphrodisiac is you
TTITLE7=Learning the blues
TTITLE8=Belfast
TTITLE9=Downstairs to the sun
TTITLE10=Lilac vine
TTITLE11=Love cats
TTITLE12=Joan of Arc and Jack the Lad
TTITLE13=Mockingbird song
TTITLE14=I think it's going to rain today
TTITLE15=Tiger in the night
TTITLE16=Shirt of a ghost
TTITLE17=The closest thing to crazy
TTITLE18=I put a spell on you
TTITLE19=Anniversary song
EXTD=
EXTT0=
EXTT1=
EXTT2=
EXTT3=
EXTT4=
EXTT5=
EXTT6=
EXTT7=
EXTT8=
EXTT9=
EXTT10=
EXTT11=
EXTT12=
EXTT13=
EXTT14=
EXTT15=
EXTT16=
EXTT17=
EXTT18=
EXTT19=
PLAYORDER=
